<svg width="24" height="25" viewBox="0 0 24 25" fill="none" xmlns="http://www.w3.org/2000/svg">
<path fill-rule="evenodd" clip-rule="evenodd" d="M5.92105 8.28569C5.92105 7.29209 6.69474 6.48569 7.64802 6.48569H16.0362C16.9895 6.48569 17.7632 7.29209 17.7632 8.28569V17.0285C17.7632 17.5059 17.5812 17.9638 17.2573 18.3013C16.9335 18.6389 16.4942 18.8285 16.0362 18.8285H7.64802C7.19 18.8285 6.75074 18.6389 6.42687 18.3013C6.103 17.9638 5.92105 17.5059 5.92105 17.0285V8.28569ZM7.64802 8.02854C7.58259 8.02854 7.51984 8.05564 7.47357 8.10386C7.42731 8.15208 7.40131 8.21749 7.40131 8.28569V17.0285C7.40131 17.1705 7.51184 17.2857 7.64802 17.2857H16.0362C16.1016 17.2857 16.1644 17.2586 16.2106 17.2104C16.2569 17.1621 16.2829 17.0967 16.2829 17.0285V8.28569C16.2829 8.21749 16.2569 8.15208 16.2106 8.10386C16.1644 8.05564 16.1016 8.02854 16.0362 8.02854H7.64802Z" fill="#8A8A8A"/>
</svg>
