<svg width="24" height="24" viewBox="0 0 24 24" fill="none" xmlns="http://www.w3.org/2000/svg">
<path fill-rule="evenodd" clip-rule="evenodd" d="M6 7.75C6 6.784 6.784 6 7.75 6H16.25C17.216 6 18 6.784 18 7.75V16.25C18 16.7141 17.8156 17.1592 17.4874 17.4874C17.1592 17.8156 16.7141 18 16.25 18H7.75C7.28587 18 6.84075 17.8156 6.51256 17.4874C6.18437 17.1592 6 16.7141 6 16.25V7.75ZM7.75 7.5C7.6837 7.5 7.62011 7.52634 7.57322 7.57322C7.52634 7.62011 7.5 7.6837 7.5 7.75V16.25C7.5 16.388 7.612 16.5 7.75 16.5H16.25C16.3163 16.5 16.3799 16.4737 16.4268 16.4268C16.4737 16.3799 16.5 16.3163 16.5 16.25V7.75C16.5 7.6837 16.4737 7.62011 16.4268 7.57322C16.3799 7.52634 16.3163 7.5 16.25 7.5H7.75Z" fill="#8A8A8A"/>
<path d="M9.39402 9.61172C10.7132 8.17209 12.9496 8.07445 14.3893 9.39362C15.8289 10.7128 15.9265 12.9492 14.6074 14.3889C13.2882 15.8285 11.0517 15.9261 9.61212 14.607C8.1725 13.2878 8.07485 11.0513 9.39402 9.61172Z" fill="#8A8A8A"/>
</svg>
