<svg width="16" height="16" viewBox="0 0 16 16" fill="none" xmlns="http://www.w3.org/2000/svg">
<path d="M1.66675 8.00009C1.66675 4.50676 4.52542 1.66676 8.06208 1.66676C8.96811 1.66478 9.86426 1.85503 10.6913 2.22496C11.5184 2.59489 12.2576 3.13607 12.8601 3.81276C12.9483 3.91178 13.0723 3.97169 13.2047 3.97931C13.3371 3.98694 13.4671 3.94166 13.5661 3.85343C13.6651 3.7652 13.725 3.64125 13.7326 3.50885C13.7403 3.37645 13.695 3.24644 13.6067 3.14743C12.9104 2.36546 12.0562 1.74003 11.1005 1.31243C10.1447 0.884826 9.10913 0.664763 8.06208 0.666762C3.98208 0.666762 0.666748 3.94609 0.666748 8.00009C0.666748 12.0541 3.98208 15.3334 8.06208 15.3334C11.6641 15.3334 14.6687 12.7788 15.3241 9.39009C15.3387 9.32481 15.3402 9.25724 15.3282 9.1914C15.3163 9.12556 15.2913 9.06278 15.2547 9.00678C15.218 8.95079 15.1705 8.90271 15.115 8.86541C15.0594 8.8281 14.997 8.80233 14.9313 8.78961C14.8656 8.77689 14.798 8.77748 14.7326 8.79136C14.6671 8.80524 14.6051 8.83211 14.5502 8.87039C14.4953 8.90867 14.4487 8.95757 14.413 9.01421C14.3774 9.07084 14.3535 9.13405 14.3427 9.20009C13.7774 12.1208 11.1827 14.3334 8.06208 14.3334C4.52542 14.3334 1.66675 11.4934 1.66675 8.00009Z" fill="black"/>
<path d="M7.72108 11C7.91232 11 8.09573 10.9296 8.23096 10.8044C8.36619 10.6791 8.44216 10.5093 8.44216 10.3321C8.44216 10.155 8.36619 9.98515 8.23096 9.8599C8.09573 9.73465 7.91232 9.66429 7.72108 9.66429C7.52984 9.66429 7.34643 9.73465 7.2112 9.8599C7.07597 9.98515 7 10.155 7 10.3321C7 10.5093 7.07597 10.6791 7.2112 10.8044C7.34643 10.9296 7.52984 11 7.72108 11ZM7.72108 4.32143C7.86451 4.32143 8.00207 4.37421 8.10349 4.46814C8.20491 4.56208 8.26189 4.68948 8.26189 4.82233V7.82768C8.26189 7.96053 8.20491 8.08793 8.10349 8.18187C8.00207 8.2758 7.86451 8.32857 7.72108 8.32857C7.57765 8.32857 7.44009 8.2758 7.33867 8.18187C7.23725 8.08793 7.18027 7.96053 7.18027 7.82768V4.82233C7.18027 4.68948 7.23725 4.56208 7.33867 4.46814C7.44009 4.37421 7.57765 4.32143 7.72108 4.32143ZM15.8549 4.84236C15.9504 4.74741 16.0024 4.62182 15.9999 4.49206C15.9974 4.36229 15.9407 4.23848 15.8416 4.14671C15.7425 4.05494 15.6088 4.00237 15.4687 4.00008C15.3286 3.99779 15.193 4.04596 15.0905 4.13443L12.5884 6.4519L11.5284 5.47015C11.4789 5.42094 11.4192 5.38146 11.3528 5.35409C11.2865 5.32671 11.2149 5.31199 11.1423 5.3108C11.0696 5.30962 10.9975 5.32199 10.9302 5.34718C10.8628 5.37237 10.8017 5.40987 10.7503 5.45743C10.699 5.505 10.6585 5.56165 10.6313 5.62402C10.6041 5.68639 10.5907 5.7532 10.592 5.82045C10.5933 5.88771 10.6092 5.95404 10.6387 6.01548C10.6683 6.07692 10.7109 6.13222 10.764 6.17808L12.2062 7.51379C12.3076 7.60759 12.445 7.66028 12.5884 7.66028C12.7317 7.66028 12.8691 7.60759 12.9705 7.51379L15.8549 4.84236Z" fill="#B40000"/>
</svg>
