<svg width="17" height="17" viewBox="0 0 17 17" fill="none" xmlns="http://www.w3.org/2000/svg">
<g clip-path="url(#clip0)">
<path d="M8.82893 5.02863C8.95979 5.02863 9.0853 5.08281 9.17783 5.17926C9.27037 5.2757 9.32235 5.40651 9.32235 5.54291V8.62862C9.32235 8.76502 9.27037 8.89583 9.17783 8.99228C9.0853 9.08873 8.95979 9.14291 8.82893 9.14291C8.69807 9.14291 8.57256 9.08873 8.48003 8.99228C8.3875 8.89583 8.33551 8.76502 8.33551 8.62862V5.54291C8.33551 5.40651 8.3875 5.2757 8.48003 5.17926C8.57256 5.08281 8.69807 5.02863 8.82893 5.02863V5.02863ZM9.48683 11.2001C9.48683 11.3819 9.41751 11.5563 9.29413 11.6849C9.17075 11.8135 9.00342 11.8858 8.82893 11.8858C8.65445 11.8858 8.48711 11.8135 8.36373 11.6849C8.24035 11.5563 8.17104 11.3819 8.17104 11.2001C8.17104 11.0182 8.24035 10.8438 8.36373 10.7152C8.48711 10.5866 8.65445 10.5143 8.82893 10.5143C9.00342 10.5143 9.17075 10.5866 9.29413 10.7152C9.41751 10.8438 9.48683 11.0182 9.48683 11.2001V11.2001Z" fill="#1D9537"/>
<path fill-rule="evenodd" clip-rule="evenodd" d="M8.82894 0.914337C4.83223 0.914337 1.5921 4.29148 1.5921 8.45719C1.5921 12.6229 4.83223 16 8.82894 16C12.8257 16 16.0658 12.6229 16.0658 8.45719C16.0658 4.29148 12.8257 0.914337 8.82894 0.914337ZM2.57894 8.45719C2.57894 6.7295 3.23742 5.07256 4.40953 3.8509C5.58163 2.62923 7.17134 1.94291 8.82894 1.94291C10.4865 1.94291 12.0763 2.62923 13.2484 3.8509C14.4205 5.07256 15.0789 6.7295 15.0789 8.45719C15.0789 10.1849 14.4205 11.8418 13.2484 13.0635C12.0763 14.2852 10.4865 14.9715 8.82894 14.9715C7.17134 14.9715 5.58163 14.2852 4.40953 13.0635C3.23742 11.8418 2.57894 10.1849 2.57894 8.45719Z" fill="#135020"/>
</g>
<defs>
<clipPath id="clip0">
<rect width="15.7895" height="16.4571" fill="white" transform="translate(0.934204 0.228577)"/>
</clipPath>
</defs>
</svg>
