<svg width="16" height="16" viewBox="0 0 16 16" fill="none" xmlns="http://www.w3.org/2000/svg">
<g clip-path="url(#clip0)">
<path fill-rule="evenodd" clip-rule="evenodd" d="M8 1.49994C6.96656 1.49909 5.94786 1.74501 5.02862 2.21724C4.10938 2.68947 3.31618 3.37436 2.715 4.21494L4.073 5.57294C4.10805 5.60791 4.13194 5.65249 4.14162 5.70105C4.1513 5.7496 4.14635 5.79994 4.12739 5.84567C4.10843 5.89141 4.07632 5.93049 4.03513 5.95795C3.99393 5.98542 3.94551 6.00003 3.896 5.99994H0.25C0.183696 5.99994 0.120108 5.9736 0.0732237 5.92672C0.0263396 5.87984 4.00326e-07 5.81625 4.00326e-07 5.74994V2.10394C-8.81823e-05 2.05443 0.014526 2.00601 0.0419903 1.96482C0.0694546 1.92362 0.108532 1.89151 0.154269 1.87255C0.200005 1.85359 0.250342 1.84864 0.298896 1.85832C0.34745 1.86801 0.392036 1.89189 0.427 1.92694L1.643 3.14294C2.61569 1.8694 3.94844 0.917329 5.46856 0.410098C6.98868 -0.0971321 8.6261 -0.136143 10.1687 0.29812C11.7112 0.732383 13.0878 1.6199 14.12 2.84568C15.1523 4.07146 15.7926 5.57899 15.958 7.17294C15.9694 7.27142 15.961 7.37118 15.9335 7.46642C15.906 7.56166 15.8598 7.65047 15.7977 7.7277C15.7355 7.80493 15.6586 7.86904 15.5715 7.91629C15.4843 7.96354 15.3886 7.99299 15.29 8.00294C15.1914 8.01315 15.0918 8.00373 14.9969 7.97521C14.902 7.94668 14.8137 7.89963 14.737 7.83678C14.6604 7.77392 14.597 7.6965 14.5505 7.60899C14.504 7.52148 14.4753 7.42562 14.466 7.32694C14.2993 5.72812 13.5462 4.24774 12.3521 3.17161C11.158 2.09549 9.60748 1.49993 8 1.49994ZM0.712 8.00394C0.909844 7.98382 1.10758 8.0431 1.26173 8.16875C1.41587 8.29439 1.51381 8.47611 1.534 8.67394C1.67087 9.98577 2.20351 11.2249 3.06121 12.2269C3.91892 13.2289 5.06111 13.9463 6.33613 14.2838C7.61115 14.6214 8.95868 14.5631 10.1998 14.1168C11.4409 13.6705 12.517 12.8572 13.285 11.7849L11.927 10.4269C11.8919 10.392 11.8681 10.3474 11.8584 10.2988C11.8487 10.2503 11.8536 10.1999 11.8726 10.1542C11.8916 10.1085 11.9237 10.0694 11.9649 10.0419C12.0061 10.0145 12.0545 9.99985 12.104 9.99994H15.75C15.8163 9.99994 15.8799 10.0263 15.9268 10.0732C15.9737 10.12 16 10.1836 16 10.2499V13.8959C16.0001 13.9455 15.9855 13.9939 15.958 14.0351C15.9305 14.0763 15.8915 14.1084 15.8457 14.1273C15.8 14.1463 15.7497 14.1512 15.7011 14.1416C15.6525 14.1319 15.608 14.108 15.573 14.0729L14.357 12.8569C13.3843 14.1305 12.0516 15.0826 10.5314 15.5898C9.01132 16.097 7.3739 16.136 5.83135 15.7018C4.2888 15.2675 2.91222 14.38 1.87998 13.1542C0.847744 11.9284 0.207427 10.4209 0.0420004 8.82694C0.0318992 8.7289 0.0412212 8.62983 0.0694335 8.53539C0.0976458 8.44096 0.144195 8.35301 0.20642 8.27657C0.268645 8.20014 0.345325 8.13672 0.432076 8.08994C0.518827 8.04316 0.613948 8.01394 0.712 8.00394ZM9 10.9999C9 11.2652 8.89464 11.5195 8.70711 11.707C8.51957 11.8946 8.26522 11.9999 8 11.9999C7.73478 11.9999 7.48043 11.8946 7.29289 11.707C7.10536 11.5195 7 11.2652 7 10.9999C7 10.7347 7.10536 10.4804 7.29289 10.2928C7.48043 10.1053 7.73478 9.99994 8 9.99994C8.26522 9.99994 8.51957 10.1053 8.70711 10.2928C8.89464 10.4804 9 10.7347 9 10.9999ZM8.75 4.74994C8.75 4.55103 8.67098 4.36027 8.53033 4.21961C8.38968 4.07896 8.19891 3.99994 8 3.99994C7.80109 3.99994 7.61032 4.07896 7.46967 4.21961C7.32902 4.36027 7.25 4.55103 7.25 4.74994V8.24994C7.25 8.44886 7.32902 8.63962 7.46967 8.78027C7.61032 8.92092 7.80109 8.99994 8 8.99994C8.19891 8.99994 8.38968 8.92092 8.53033 8.78027C8.67098 8.63962 8.75 8.44886 8.75 8.24994V4.74994Z" fill="#204B19"/>
</g>
<defs>
<clipPath id="clip0">
<rect width="16" height="16" fill="white"/>
</clipPath>
</defs>
</svg>
